<svg xmlns="http://www.w3.org/2000/svg" viewBox="0 0 410 404">
  <defs>
    <linearGradient id="a" x1="0" x2="1" y1="0" y2="1">
      <stop stop-color="#41d1ff" offset="0" />
      <stop stop-color="#bd34fe" offset="1" />
    </linearGradient>
    <linearGradient id="b" x1="0" x2="1" y1="0" y2="1">
      <stop stop-color="#ffea83" offset="0" />
      <stop stop-color="#ffa800" offset="0.5" />
      <stop stop-color="#ff1b6b" offset="1" />
    </linearGradient>
  </defs>
  <path fill="url(#a)" d="M399.641 59.525 215.598 388.944c-5.888 10.669-21.483 10.661-27.36-.015L9.926 59.58c-6.136-11.114 3.06-24.462 15.606-22.132l180.483 34.716a15.221 15.221 0 0 0 5.469-.004l172.629-34.61c12.518-2.512 21.748 10.732 15.663 21.889Z" />
  <path fill="url(#b)" d="m292.965 1.574-110.13 21.926a7.64 7.64 0 0 0-6.222 6.173l-17.39 110.874a7.64 7.64 0 0 0 8.967 8.809l30.357-4.983c6.035-.99 11.386 3.846 10.427 9.879l-9.075 58.369c-.97 6.238 4.712 11.426 10.833 9.81l18.799-4.964c6.125-1.616 11.811 3.579 10.824 9.835l-14.565 93.864c-1.274 8.214 10.042 12.303 14.418 5.319L302.376 74.348c3.241-5.223-.827-11.864-6.832-10.622l-31.338 6.603c-6.12 1.289-11.51-4.239-9.931-10.257l20.815-79.44c1.596-6.089-3.766-11.786-9.846-10.507Z" />
</svg>
