<svg width="1440" height="200" viewBox="0 0 1440 200" fill="none" xmlns="http://www.w3.org/2000/svg">
  <path d="M0 100L60 110C120 120 240 140 360 140C480 140 600 120 720 110C840 100 960 100 1080 110C1200 120 1320 140 1380 150L1440 160V200H1380C1320 200 1200 200 1080 200C960 200 840 200 720 200C600 200 480 200 360 200C240 200 120 200 60 200H0V100Z" fill="url(#paint0_linear)"/>
  <defs>
    <linearGradient id="paint0_linear" x1="0" y1="100" x2="1440" y2="200" gradientUnits="userSpaceOnUse">
      <stop stop-color="#6366f1"/>
      <stop offset="1" stop-color="#818cf8"/>
    </linearGradient>
  </defs>
</svg>
